<svg width="807" height="256" viewBox="0 0 807 256" fill="none" xmlns="http://www.w3.org/2000/svg" xmlns:xlink="http://www.w3.org/1999/xlink">
 <path fill-rule="evenodd" clip-rule="evenodd" d="M205.331 94.9394C205.331 193.236 126.666 220 126.666 220C126.666 220 48 193.236 48 94.9394V59.5566C48 55.6784 51.0164 52.5662 54.7989 52.2789C69.0669 51.6086 102.965 48.7359 126.666 36C150.414 48.7359 184.264 51.6086 198.532 52.3268C202.315 52.5662 205.331 55.6784 205.331 59.5566V94.9394ZM136.625 92.3539C148.307 93.4551 157.5 97.1418 158.457 107.867C159.176 115.719 155.872 120.411 150.605 123.092C159.271 125.199 164.634 130.37 163.485 141.909C162.048 156.177 151.323 159.959 136.098 160.725L136.146 175.712H127.001L127.049 160.869C124.703 160.821 122.309 160.773 119.819 160.725L119.723 175.712L110.722 175.664L110.674 160.582C108.567 160.582 94.2035 160.63 94.2035 160.63L94.2993 149.713L104.45 149.665L104.498 101.786H92.9108V92.2581C92.9108 92.2581 109.238 92.2581 111.201 92.2102L111.153 77.3198L120.298 77.2719V91.9708C122.74 91.923 125.277 91.923 127.671 91.923L127.623 77.4155L136.672 77.3677L136.625 92.3539ZM121.963 149.791C129.353 149.95 145.49 150.298 145.578 139.946C145.664 129.399 130.074 129.651 122.439 129.774C121.582 129.788 120.825 129.8 120.202 129.795L120.25 149.761C120.744 149.765 121.32 149.777 121.963 149.791ZM121.911 120.727C128.021 120.88 141.468 121.214 141.556 111.793C141.599 102.126 128.415 102.428 122.154 102.572C121.5 102.587 120.921 102.6 120.441 102.6L120.489 120.698C120.898 120.702 121.376 120.714 121.911 120.727Z" fill="black">
 </path>
 <path d="M361.753 157.948C361.753 165.801 360.22 172.36 357.108 177.675C353.996 182.989 349.879 187.298 344.755 190.506C339.632 193.762 333.791 196.06 327.232 197.497C320.672 198.933 313.969 199.603 307.074 199.603H250.002V56.3487H307.074C312.628 56.3487 318.278 56.9232 324.072 58.0723C329.865 59.2214 335.132 61.1845 339.872 63.9615C344.612 66.7385 348.442 70.4731 351.411 75.2131C354.379 79.9532 355.863 85.9381 355.863 93.2157C355.863 101.164 353.709 107.771 349.4 112.942C345.091 118.161 339.393 121.895 332.403 124.194V124.577C336.472 125.247 340.255 126.492 343.846 128.311C347.437 130.131 350.549 132.477 353.134 135.302C355.768 138.126 357.874 141.43 359.406 145.213C360.987 148.995 361.753 153.256 361.753 157.948ZM322.492 97.86C322.492 93.0242 320.624 89.4811 316.938 87.2308C313.203 84.9805 307.745 83.8793 300.419 83.8793H283.422V113.421H302.047C308.511 113.421 313.538 112.128 317.129 109.495C320.72 106.861 322.492 102.983 322.492 97.86ZM327.136 154.741C327.136 148.804 324.933 144.686 320.433 142.388C315.98 140.09 310.043 138.94 302.622 138.94H283.374V171.738H302.813C305.494 171.738 308.319 171.498 311.192 171.02C314.113 170.541 316.746 169.727 319.092 168.482C321.438 167.285 323.353 165.561 324.838 163.311C326.418 161.109 327.136 158.236 327.136 154.741Z" fill="black">
 </path>
 <path d="M407.765 66.6906C407.765 69.2761 407.238 71.67 406.232 73.8725C405.227 76.1228 403.886 78.038 402.163 79.618C400.487 81.2459 398.428 82.5386 396.082 83.4483C393.736 84.4059 391.246 84.8847 388.709 84.8847C383.298 84.8847 378.798 83.1132 375.159 79.5222C371.52 75.9313 369.701 71.67 369.701 66.6906C369.701 64.2487 370.179 61.9505 371.137 59.7002C372.094 57.4499 373.435 55.5347 375.207 53.9547C376.978 52.3268 378.989 51.0341 381.287 50.0286C383.585 49.0231 386.075 48.4965 388.756 48.4965C391.342 48.4965 393.784 48.9753 396.13 49.9328C398.476 50.8904 400.535 52.1353 402.211 53.7632C403.886 55.3911 405.227 57.3062 406.28 59.5087C407.286 61.7111 407.765 64.1051 407.765 66.6906ZM372.142 199.651V98.8654H405.323V199.651H372.142Z" fill="black">
 </path>
 <path d="M465.507 123.571V162.162C465.507 166.902 466.417 170.445 468.236 172.839C470.056 175.233 473.312 176.382 478.052 176.382C479.68 176.382 481.403 176.238 483.223 175.999C485.042 175.712 486.574 175.329 487.771 174.802L488.154 199.077C485.856 199.891 482.983 200.609 479.44 201.183C475.945 201.806 472.402 202.093 468.907 202.093C462.156 202.093 456.506 201.231 451.91 199.556C447.313 197.88 443.626 195.438 440.897 192.23C438.12 189.07 436.157 185.24 434.912 180.883C433.715 176.478 433.093 171.594 433.093 166.184V123.571H416.91V98.8654H432.902V72.3403H465.507V98.8654H489.208V123.571H465.507Z" fill="black">
 </path>
 <path d="M609.336 199.843C599.952 202.141 589.754 203.29 578.646 203.29C567.155 203.29 556.621 201.471 546.95 197.832C537.278 194.193 528.995 189.07 522.053 182.463C515.11 175.855 509.652 167.907 505.774 158.667C501.848 149.426 499.884 139.132 499.884 127.785C499.884 116.294 501.895 105.904 505.869 96.6151C509.843 87.3266 515.349 79.3786 522.388 72.8191C529.378 66.2597 537.613 61.2324 547.093 57.7372C556.526 54.242 566.724 52.4705 577.64 52.4705C588.988 52.4705 599.521 54.1941 609.241 57.6414C618.96 61.0887 626.86 65.6851 632.941 71.5264L611.06 96.4236C607.661 92.4975 603.208 89.2896 597.702 86.7999C592.148 84.3102 585.876 83.0653 578.885 83.0653C572.805 83.0653 567.203 84.1665 562.08 86.4169C556.957 88.6193 552.504 91.7315 548.721 95.7054C544.939 99.6794 542.018 104.419 539.912 109.878C537.805 115.336 536.752 121.321 536.752 127.785C536.752 134.392 537.709 140.473 539.576 146.027C541.444 151.581 544.269 156.321 547.955 160.295C551.642 164.269 556.238 167.381 561.697 169.583C567.155 171.833 573.379 172.935 580.417 172.935C584.487 172.935 588.317 172.647 591.956 172.025C595.595 171.403 598.995 170.445 602.059 169.104V143.01H574.72V115.097H633.851V190.985C626.908 194.576 618.721 197.545 609.336 199.843Z" fill="black">
 </path>
 <path d="M758.72 148.851C758.72 157.087 757.236 164.556 754.267 171.211C751.299 177.914 747.229 183.564 742.106 188.208C736.983 192.853 731.046 196.491 724.295 199.029C717.544 201.614 710.314 202.859 702.653 202.859C695.088 202.859 687.907 201.567 681.108 199.029C674.309 196.443 668.372 192.853 663.297 188.208C658.221 183.564 654.2 177.866 651.231 171.211C648.263 164.508 646.778 157.087 646.778 148.851C646.778 140.616 648.263 133.195 651.231 126.588C654.2 119.98 658.221 114.378 663.297 109.782C668.372 105.186 674.309 101.69 681.108 99.2486C687.907 96.8067 695.088 95.6097 702.653 95.6097C710.362 95.6097 717.544 96.8067 724.295 99.2486C731.046 101.69 736.983 105.186 742.106 109.782C747.229 114.378 751.299 119.98 754.267 126.588C757.236 133.195 758.72 140.616 758.72 148.851ZM726.737 148.851C726.737 145.596 726.21 142.436 725.109 139.324C724.008 136.211 722.475 133.482 720.464 131.136C718.454 128.79 715.964 126.875 712.995 125.391C710.027 123.906 706.579 123.188 702.653 123.188C698.727 123.188 695.28 123.954 692.312 125.391C689.343 126.875 686.901 128.79 684.938 131.136C682.975 133.482 681.491 136.211 680.485 139.324C679.48 142.436 678.953 145.596 678.953 148.851C678.953 152.107 679.48 155.267 680.485 158.379C681.491 161.492 683.023 164.269 685.034 166.758C687.045 169.248 689.534 171.259 692.503 172.743C695.472 174.227 698.919 174.994 702.845 174.994C706.771 174.994 710.218 174.275 713.187 172.743C716.155 171.259 718.645 169.248 720.656 166.758C722.667 164.269 724.199 161.444 725.205 158.379C726.258 155.267 726.737 152.107 726.737 148.851Z" fill="black">
 </path>
</svg>